<?xml version="1.0" encoding="UTF-8" standalone="no"?>
<!DOCTYPE svg PUBLIC "-//W3C//DTD SVG 1.1//EN"
 "http://www.w3.org/Graphics/SVG/1.1/DTD/svg11.dtd">
<!-- Generated by graphviz version 15.1.0 (0)
 -->
<!-- Title: CRME_Evaluation_Workflow Pages: 1 -->
<svg width="551pt" height="740pt"
 viewBox="0.00 0.00 551.00 740.00" xmlns="http://www.w3.org/2000/svg" xmlns:xlink="http://www.w3.org/1999/xlink">
<g id="graph0" class="graph" transform="scale(1 1) rotate(0) translate(4 736)">
<title>CRME_Evaluation_Workflow</title>
<polygon fill="white" stroke="none" points="-4,4 -4,-736 546.5,-736 546.5,4 -4,4"/>
<!-- title -->
<g id="node1" class="node">
<title>title</title>
<text xml:space="preserve" text-anchor="middle" x="275.5" y="-712.8" font-family="Helvetica,sans-Serif" font-weight="bold" font-size="16.00">CRME Evaluation Workflow</text>
<text xml:space="preserve" text-anchor="middle" x="275.5" y="-693.3" font-family="Helvetica,sans-Serif" font-weight="bold" font-size="16.00">Experimental Validation Framework</text>
</g>
<!-- implementation -->
<g id="node2" class="node">
<title>implementation</title>
<path fill="#9cc3e6" stroke="black" d="M338.25,-627C338.25,-627 212.75,-627 212.75,-627 206.75,-627 200.75,-621 200.75,-615 200.75,-615 200.75,-531.5 200.75,-531.5 200.75,-525.5 206.75,-519.5 212.75,-519.5 212.75,-519.5 338.25,-519.5 338.25,-519.5 344.25,-519.5 350.25,-525.5 350.25,-531.5 350.25,-531.5 350.25,-615 350.25,-615 350.25,-621 344.25,-627 338.25,-627"/>
<text xml:space="preserve" text-anchor="middle" x="275.5" y="-611.6" font-family="Helvetica,sans-Serif" font-size="12.00">CRME Implementation</text>
<text xml:space="preserve" text-anchor="middle" x="275.5" y="-583.35" font-family="Helvetica,sans-Serif" font-size="12.00">Core Modules</text>
<text xml:space="preserve" text-anchor="middle" x="275.5" y="-569.1" font-family="Helvetica,sans-Serif" font-size="12.00">Memory</text>
<text xml:space="preserve" text-anchor="middle" x="275.5" y="-554.85" font-family="Helvetica,sans-Serif" font-size="12.00">Session</text>
<text xml:space="preserve" text-anchor="middle" x="275.5" y="-540.6" font-family="Helvetica,sans-Serif" font-size="12.00">Project</text>
<text xml:space="preserve" text-anchor="middle" x="275.5" y="-526.35" font-family="Helvetica,sans-Serif" font-size="12.00">Graph</text>
</g>
<!-- title&#45;&gt;implementation -->
<g id="edge1" class="edge">
<title>title&#45;&gt;implementation</title>
<path fill="none" stroke="black" d="M275.5,-685.25C275.5,-685.25 275.5,-638.85 275.5,-638.85"/>
<polygon fill="black" stroke="black" points="279,-638.85 275.5,-628.85 272,-638.85 279,-638.85"/>
</g>
<!-- framework -->
<g id="node3" class="node">
<title>framework</title>
<path fill="#d9eaf7" stroke="black" d="M338.25,-461.5C338.25,-461.5 212.75,-461.5 212.75,-461.5 206.75,-461.5 200.75,-455.5 200.75,-449.5 200.75,-449.5 200.75,-423 200.75,-423 200.75,-417 206.75,-411 212.75,-411 212.75,-411 338.25,-411 338.25,-411 344.25,-411 350.25,-417 350.25,-423 350.25,-423 350.25,-449.5 350.25,-449.5 350.25,-455.5 344.25,-461.5 338.25,-461.5"/>
<text xml:space="preserve" text-anchor="middle" x="275.5" y="-446.1" font-family="Helvetica,sans-Serif" font-size="12.00">Evaluation Framework</text>
<text xml:space="preserve" text-anchor="middle" x="275.5" y="-417.85" font-family="Helvetica,sans-Serif" font-size="12.00">Experimental Pipeline</text>
</g>
<!-- implementation&#45;&gt;framework -->
<g id="edge2" class="edge">
<title>implementation&#45;&gt;framework</title>
<path fill="none" stroke="black" d="M275.5,-519.1C275.5,-519.1 275.5,-473.35 275.5,-473.35"/>
<polygon fill="black" stroke="black" points="279,-473.35 275.5,-463.35 272,-473.35 279,-473.35"/>
</g>
<!-- benchmark -->
<g id="node4" class="node">
<title>benchmark</title>
<path fill="#b7d7f0" stroke="black" d="M139,-345.88C139,-345.88 12,-345.88 12,-345.88 6,-345.88 0,-339.88 0,-333.88 0,-333.88 0,-293.12 0,-293.12 0,-287.12 6,-281.12 12,-281.12 12,-281.12 139,-281.12 139,-281.12 145,-281.12 151,-287.12 151,-293.12 151,-293.12 151,-333.88 151,-333.88 151,-339.88 145,-345.88 139,-345.88"/>
<text xml:space="preserve" text-anchor="middle" x="75.5" y="-330.48" font-family="Helvetica,sans-Serif" font-size="12.00">Benchmark Evaluation</text>
<text xml:space="preserve" text-anchor="middle" x="75.5" y="-302.23" font-family="Helvetica,sans-Serif" font-size="12.00">Baseline Comparison</text>
<text xml:space="preserve" text-anchor="middle" x="75.5" y="-287.98" font-family="Helvetica,sans-Serif" font-size="12.00">KOS / DTS / RSR</text>
</g>
<!-- framework&#45;&gt;benchmark -->
<g id="edge3" class="edge">
<title>framework&#45;&gt;benchmark</title>
<path fill="none" stroke="black" d="M200.39,-436C164.64,-436 129.56,-436 129.56,-436 129.56,-436 129.56,-357.84 129.56,-357.84"/>
<polygon fill="black" stroke="black" points="133.06,-357.84 129.56,-347.84 126.06,-357.84 133.06,-357.84"/>
</g>
<!-- ablation -->
<g id="node5" class="node">
<title>ablation</title>
<path fill="#b7d7f0" stroke="black" d="M345,-345.88C345,-345.88 206,-345.88 206,-345.88 200,-345.88 194,-339.88 194,-333.88 194,-333.88 194,-293.12 194,-293.12 194,-287.12 200,-281.12 206,-281.12 206,-281.12 345,-281.12 345,-281.12 351,-281.12 357,-287.12 357,-293.12 357,-293.12 357,-333.88 357,-333.88 357,-339.88 351,-345.88 345,-345.88"/>
<text xml:space="preserve" text-anchor="middle" x="275.5" y="-330.48" font-family="Helvetica,sans-Serif" font-size="12.00">Ablation Study</text>
<text xml:space="preserve" text-anchor="middle" x="275.5" y="-302.23" font-family="Helvetica,sans-Serif" font-size="12.00">Component Contribution</text>
<text xml:space="preserve" text-anchor="middle" x="275.5" y="-287.98" font-family="Helvetica,sans-Serif" font-size="12.00">CRME Variants</text>
</g>
<!-- framework&#45;&gt;ablation -->
<g id="edge4" class="edge">
<title>framework&#45;&gt;ablation</title>
<path fill="none" stroke="black" d="M275.5,-410.52C275.5,-410.52 275.5,-357.73 275.5,-357.73"/>
<polygon fill="black" stroke="black" points="279,-357.73 275.5,-347.73 272,-357.73 279,-357.73"/>
</g>
<!-- scalability -->
<g id="node6" class="node">
<title>scalability</title>
<path fill="#b7d7f0" stroke="black" d="M530.5,-353C530.5,-353 412.5,-353 412.5,-353 406.5,-353 400.5,-347 400.5,-341 400.5,-341 400.5,-286 400.5,-286 400.5,-280 406.5,-274 412.5,-274 412.5,-274 530.5,-274 530.5,-274 536.5,-274 542.5,-280 542.5,-286 542.5,-286 542.5,-341 542.5,-341 542.5,-347 536.5,-353 530.5,-353"/>
<text xml:space="preserve" text-anchor="middle" x="471.5" y="-337.6" font-family="Helvetica,sans-Serif" font-size="12.00">Scalability Evaluation</text>
<text xml:space="preserve" text-anchor="middle" x="471.5" y="-309.35" font-family="Helvetica,sans-Serif" font-size="12.00">Small</text>
<text xml:space="preserve" text-anchor="middle" x="471.5" y="-295.1" font-family="Helvetica,sans-Serif" font-size="12.00">Medium</text>
<text xml:space="preserve" text-anchor="middle" x="471.5" y="-280.85" font-family="Helvetica,sans-Serif" font-size="12.00">Large</text>
</g>
<!-- framework&#45;&gt;scalability -->
<g id="edge5" class="edge">
<title>framework&#45;&gt;scalability</title>
<path fill="none" stroke="black" d="M350.73,-436C386.55,-436 421.69,-436 421.69,-436 421.69,-436 421.69,-364.79 421.69,-364.79"/>
<polygon fill="black" stroke="black" points="425.19,-364.79 421.69,-354.79 418.19,-364.79 425.19,-364.79"/>
</g>
<!-- metrics -->
<g id="node7" class="node">
<title>metrics</title>
<path fill="#b6e3b6" stroke="black" d="M330.75,-216C330.75,-216 220.25,-216 220.25,-216 214.25,-216 208.25,-210 208.25,-204 208.25,-204 208.25,-134.75 208.25,-134.75 208.25,-128.75 214.25,-122.75 220.25,-122.75 220.25,-122.75 330.75,-122.75 330.75,-122.75 336.75,-122.75 342.75,-128.75 342.75,-134.75 342.75,-134.75 342.75,-204 342.75,-204 342.75,-210 336.75,-216 330.75,-216"/>
<text xml:space="preserve" text-anchor="middle" x="275.5" y="-200.6" font-family="Helvetica,sans-Serif" font-size="12.00">Metric Computation</text>
<text xml:space="preserve" text-anchor="middle" x="275.5" y="-172.35" font-family="Helvetica,sans-Serif" font-size="12.00">CRT</text>
<text xml:space="preserve" text-anchor="middle" x="275.5" y="-158.1" font-family="Helvetica,sans-Serif" font-size="12.00">KOS</text>
<text xml:space="preserve" text-anchor="middle" x="275.5" y="-143.85" font-family="Helvetica,sans-Serif" font-size="12.00">DTS</text>
<text xml:space="preserve" text-anchor="middle" x="275.5" y="-129.6" font-family="Helvetica,sans-Serif" font-size="12.00">RSR</text>
</g>
<!-- benchmark&#45;&gt;metrics -->
<g id="edge6" class="edge">
<title>benchmark&#45;&gt;metrics</title>
<path fill="none" stroke="black" d="M75.5,-280.71C75.5,-238.08 75.5,-169 75.5,-169 75.5,-169 196.28,-169 196.28,-169"/>
<polygon fill="black" stroke="black" points="196.28,-172.5 206.28,-169 196.28,-165.5 196.28,-172.5"/>
</g>
<!-- ablation&#45;&gt;metrics -->
<g id="edge7" class="edge">
<title>ablation&#45;&gt;metrics</title>
<path fill="none" stroke="black" d="M253.08,-280.8C253.08,-280.8 253.08,-227.95 253.08,-227.95"/>
<polygon fill="black" stroke="black" points="256.58,-227.95 253.08,-217.95 249.58,-227.95 256.58,-227.95"/>
</g>
<!-- scalability&#45;&gt;metrics -->
<g id="edge8" class="edge">
<title>scalability&#45;&gt;metrics</title>
<path fill="none" stroke="black" d="M400.15,-278C352.27,-278 297.92,-278 297.92,-278 297.92,-278 297.92,-227.9 297.92,-227.9"/>
<polygon fill="black" stroke="black" points="301.42,-227.9 297.92,-217.9 294.42,-227.9 301.42,-227.9"/>
</g>
<!-- tables -->
<g id="node8" class="node">
<title>tables</title>
<path fill="#f8d7a8" stroke="black" d="M341.25,-64.75C341.25,-64.75 209.75,-64.75 209.75,-64.75 203.75,-64.75 197.75,-58.75 197.75,-52.75 197.75,-52.75 197.75,-12 197.75,-12 197.75,-6 203.75,0 209.75,0 209.75,0 341.25,0 341.25,0 347.25,0 353.25,-6 353.25,-12 353.25,-12 353.25,-52.75 353.25,-52.75 353.25,-58.75 347.25,-64.75 341.25,-64.75"/>
<text xml:space="preserve" text-anchor="middle" x="275.5" y="-49.35" font-family="Helvetica,sans-Serif" font-size="12.00">Paper Tables &amp; Analysis</text>
<text xml:space="preserve" text-anchor="middle" x="275.5" y="-21.1" font-family="Helvetica,sans-Serif" font-size="12.00">Quantitative Results</text>
<text xml:space="preserve" text-anchor="middle" x="275.5" y="-6.85" font-family="Helvetica,sans-Serif" font-size="12.00">Discussion</text>
</g>
<!-- metrics&#45;&gt;tables -->
<g id="edge9" class="edge">
<title>metrics&#45;&gt;tables</title>
<path fill="none" stroke="black" d="M275.5,-122.61C275.5,-122.61 275.5,-76.63 275.5,-76.63"/>
<polygon fill="black" stroke="black" points="279,-76.63 275.5,-66.63 272,-76.63 279,-76.63"/>
</g>
</g>
</svg>
