<?xml version="1.0" encoding="UTF-8" standalone="no"?>
<!DOCTYPE svg PUBLIC "-//W3C//DTD SVG 1.1//EN"
 "http://www.w3.org/Graphics/SVG/1.1/DTD/svg11.dtd">
<!-- Generated by graphviz version 15.1.0 (0)
 -->
<!-- Title: Research_Object_Model Pages: 1 -->
<svg width="833pt" height="315pt"
 viewBox="0.00 0.00 833.00 315.00" xmlns="http://www.w3.org/2000/svg" xmlns:xlink="http://www.w3.org/1999/xlink">
<g id="graph0" class="graph" transform="scale(1 1) rotate(0) translate(4 310.75)">
<title>Research_Object_Model</title>
<polygon fill="white" stroke="none" points="-4,4 -4,-310.75 829.12,-310.75 829.12,4 -4,4"/>
<!-- title -->
<g id="node1" class="node">
<title>title</title>
<text xml:space="preserve" text-anchor="middle" x="378.75" y="-287.55" font-family="Helvetica,sans-Serif" font-weight="bold" font-size="16.00">CRME Research Object Model</text>
<text xml:space="preserve" text-anchor="middle" x="378.75" y="-268.05" font-family="Helvetica,sans-Serif" font-weight="bold" font-size="16.00">Structured Representation of Research Knowledge</text>
</g>
<!-- object -->
<g id="node2" class="node">
<title>object</title>
<path fill="#9cc3e6" stroke="black" d="M437,-201.75C437,-201.75 320.5,-201.75 320.5,-201.75 314.5,-201.75 308.5,-195.75 308.5,-189.75 308.5,-189.75 308.5,-163.25 308.5,-163.25 308.5,-157.25 314.5,-151.25 320.5,-151.25 320.5,-151.25 437,-151.25 437,-151.25 443,-151.25 449,-157.25 449,-163.25 449,-163.25 449,-189.75 449,-189.75 449,-195.75 443,-201.75 437,-201.75"/>
<text xml:space="preserve" text-anchor="middle" x="378.75" y="-186.35" font-family="Helvetica,sans-Serif" font-size="12.00">Research Object</text>
<text xml:space="preserve" text-anchor="middle" x="378.75" y="-158.1" font-family="Helvetica,sans-Serif" font-size="12.00">Core Knowledge Unit</text>
</g>
<!-- title&#45;&gt;object -->
<g id="edge1" class="edge">
<title>title&#45;&gt;object</title>
<path fill="none" stroke="black" d="M378.75,-259.82C378.75,-259.82 378.75,-213.63 378.75,-213.63"/>
<polygon fill="black" stroke="black" points="382.25,-213.63 378.75,-203.63 375.25,-213.63 382.25,-213.63"/>
</g>
<!-- identity -->
<g id="node3" class="node">
<title>identity</title>
<path fill="#d9eaf7" stroke="black" d="M59.5,-79C59.5,-79 12,-79 12,-79 6,-79 0,-73 0,-67 0,-67 0,-26.25 0,-26.25 0,-20.25 6,-14.25 12,-14.25 12,-14.25 59.5,-14.25 59.5,-14.25 65.5,-14.25 71.5,-20.25 71.5,-26.25 71.5,-26.25 71.5,-67 71.5,-67 71.5,-73 65.5,-79 59.5,-79"/>
<text xml:space="preserve" text-anchor="middle" x="35.75" y="-63.6" font-family="Helvetica,sans-Serif" font-size="12.00">Identity</text>
<text xml:space="preserve" text-anchor="middle" x="35.75" y="-35.35" font-family="Helvetica,sans-Serif" font-size="12.00">Object ID</text>
<text xml:space="preserve" text-anchor="middle" x="35.75" y="-21.1" font-family="Helvetica,sans-Serif" font-size="12.00">Type</text>
</g>
<!-- object&#45;&gt;identity -->
<g id="edge2" class="edge">
<title>object&#45;&gt;identity</title>
<path fill="none" stroke="black" d="M308.1,-185C207.69,-185 35.75,-185 35.75,-185 35.75,-185 35.75,-90.93 35.75,-90.93"/>
<polygon fill="black" stroke="black" points="39.25,-90.93 35.75,-80.93 32.25,-90.93 39.25,-90.93"/>
</g>
<!-- metadata -->
<g id="node4" class="node">
<title>metadata</title>
<path fill="#d9eaf7" stroke="black" d="M178.75,-86.12C178.75,-86.12 126.75,-86.12 126.75,-86.12 120.75,-86.12 114.75,-80.12 114.75,-74.12 114.75,-74.12 114.75,-19.13 114.75,-19.13 114.75,-13.12 120.75,-7.12 126.75,-7.12 126.75,-7.12 178.75,-7.12 178.75,-7.12 184.75,-7.12 190.75,-13.12 190.75,-19.12 190.75,-19.12 190.75,-74.12 190.75,-74.12 190.75,-80.12 184.75,-86.12 178.75,-86.12"/>
<text xml:space="preserve" text-anchor="middle" x="152.75" y="-70.72" font-family="Helvetica,sans-Serif" font-size="12.00">Metadata</text>
<text xml:space="preserve" text-anchor="middle" x="152.75" y="-42.48" font-family="Helvetica,sans-Serif" font-size="12.00">Properties</text>
<text xml:space="preserve" text-anchor="middle" x="152.75" y="-28.23" font-family="Helvetica,sans-Serif" font-size="12.00">Tags</text>
<text xml:space="preserve" text-anchor="middle" x="152.75" y="-13.97" font-family="Helvetica,sans-Serif" font-size="12.00">Attributes</text>
</g>
<!-- object&#45;&gt;metadata -->
<g id="edge3" class="edge">
<title>object&#45;&gt;metadata</title>
<path fill="none" stroke="black" d="M308.28,-168C246.72,-168 167.12,-168 167.12,-168 167.12,-168 167.12,-97.88 167.12,-97.88"/>
<polygon fill="black" stroke="black" points="170.63,-97.88 167.13,-87.88 163.63,-97.88 170.63,-97.88"/>
</g>
<!-- temporal -->
<g id="node5" class="node">
<title>temporal</title>
<path fill="#d9eaf7" stroke="black" d="M343.62,-86.12C343.62,-86.12 245.88,-86.12 245.88,-86.12 239.88,-86.12 233.88,-80.12 233.88,-74.12 233.88,-74.12 233.88,-19.13 233.88,-19.13 233.88,-13.12 239.88,-7.12 245.88,-7.12 245.88,-7.12 343.62,-7.12 343.62,-7.12 349.62,-7.12 355.62,-13.12 355.62,-19.12 355.62,-19.12 355.62,-74.12 355.62,-74.12 355.62,-80.12 349.62,-86.12 343.62,-86.12"/>
<text xml:space="preserve" text-anchor="middle" x="294.75" y="-70.72" font-family="Helvetica,sans-Serif" font-size="12.00">Temporal Context</text>
<text xml:space="preserve" text-anchor="middle" x="294.75" y="-42.48" font-family="Helvetica,sans-Serif" font-size="12.00">Creation Time</text>
<text xml:space="preserve" text-anchor="middle" x="294.75" y="-28.23" font-family="Helvetica,sans-Serif" font-size="12.00">History</text>
<text xml:space="preserve" text-anchor="middle" x="294.75" y="-13.97" font-family="Helvetica,sans-Serif" font-size="12.00">Versions</text>
</g>
<!-- object&#45;&gt;temporal -->
<g id="edge4" class="edge">
<title>object&#45;&gt;temporal</title>
<path fill="none" stroke="black" d="M332.06,-150.84C332.06,-150.84 332.06,-98.07 332.06,-98.07"/>
<polygon fill="black" stroke="black" points="335.56,-98.07 332.06,-88.07 328.56,-98.07 335.56,-98.07"/>
</g>
<!-- relations -->
<g id="node6" class="node">
<title>relations</title>
<path fill="#b6e3b6" stroke="black" d="M516.75,-86.12C516.75,-86.12 410.75,-86.12 410.75,-86.12 404.75,-86.12 398.75,-80.12 398.75,-74.12 398.75,-74.12 398.75,-19.13 398.75,-19.13 398.75,-13.12 404.75,-7.12 410.75,-7.12 410.75,-7.12 516.75,-7.12 516.75,-7.12 522.75,-7.12 528.75,-13.12 528.75,-19.12 528.75,-19.12 528.75,-74.12 528.75,-74.12 528.75,-80.12 522.75,-86.12 516.75,-86.12"/>
<text xml:space="preserve" text-anchor="middle" x="463.75" y="-70.72" font-family="Helvetica,sans-Serif" font-size="12.00">Semantic Relations</text>
<text xml:space="preserve" text-anchor="middle" x="463.75" y="-42.48" font-family="Helvetica,sans-Serif" font-size="12.00">Links</text>
<text xml:space="preserve" text-anchor="middle" x="463.75" y="-28.23" font-family="Helvetica,sans-Serif" font-size="12.00">Dependencies</text>
<text xml:space="preserve" text-anchor="middle" x="463.75" y="-13.97" font-family="Helvetica,sans-Serif" font-size="12.00">Knowledge Graph</text>
</g>
<!-- object&#45;&gt;relations -->
<g id="edge5" class="edge">
<title>object&#45;&gt;relations</title>
<path fill="none" stroke="black" d="M415.5,-150.84C415.5,-150.84 415.5,-98.07 415.5,-98.07"/>
<polygon fill="black" stroke="black" points="419,-98.07 415.5,-88.07 412,-98.07 419,-98.07"/>
</g>
<!-- provenance -->
<g id="node7" class="node">
<title>provenance</title>
<path fill="#f8d7a8" stroke="black" d="M645.62,-86.12C645.62,-86.12 583.88,-86.12 583.88,-86.12 577.88,-86.12 571.88,-80.12 571.88,-74.12 571.88,-74.12 571.88,-19.13 571.88,-19.13 571.88,-13.12 577.88,-7.12 583.88,-7.12 583.88,-7.12 645.62,-7.12 645.62,-7.12 651.62,-7.12 657.62,-13.12 657.62,-19.12 657.62,-19.12 657.62,-74.12 657.62,-74.12 657.62,-80.12 651.62,-86.12 645.62,-86.12"/>
<text xml:space="preserve" text-anchor="middle" x="614.75" y="-70.72" font-family="Helvetica,sans-Serif" font-size="12.00">Provenance</text>
<text xml:space="preserve" text-anchor="middle" x="614.75" y="-42.48" font-family="Helvetica,sans-Serif" font-size="12.00">Source</text>
<text xml:space="preserve" text-anchor="middle" x="614.75" y="-28.23" font-family="Helvetica,sans-Serif" font-size="12.00">Decisions</text>
<text xml:space="preserve" text-anchor="middle" x="614.75" y="-13.97" font-family="Helvetica,sans-Serif" font-size="12.00">Evolution</text>
</g>
<!-- object&#45;&gt;provenance -->
<g id="edge6" class="edge">
<title>object&#45;&gt;provenance</title>
<path fill="none" stroke="black" d="M449.48,-177C511.86,-177 592.94,-177 592.94,-177 592.94,-177 592.94,-97.96 592.94,-97.96"/>
<polygon fill="black" stroke="black" points="596.44,-97.96 592.94,-87.96 589.44,-97.96 596.44,-97.96"/>
</g>
<!-- artifact -->
<g id="node8" class="node">
<title>artifact</title>
<path fill="#f8d7a8" stroke="black" d="M813.12,-93.25C813.12,-93.25 712.38,-93.25 712.38,-93.25 706.38,-93.25 700.38,-87.25 700.38,-81.25 700.38,-81.25 700.38,-12 700.38,-12 700.38,-6 706.38,0 712.38,0 712.38,0 813.12,0 813.12,0 819.12,0 825.12,-6 825.12,-12 825.12,-12 825.12,-81.25 825.12,-81.25 825.12,-87.25 819.12,-93.25 813.12,-93.25"/>
<text xml:space="preserve" text-anchor="middle" x="762.75" y="-77.85" font-family="Helvetica,sans-Serif" font-size="12.00">Research Artifacts</text>
<text xml:space="preserve" text-anchor="middle" x="762.75" y="-49.6" font-family="Helvetica,sans-Serif" font-size="12.00">Code</text>
<text xml:space="preserve" text-anchor="middle" x="762.75" y="-35.35" font-family="Helvetica,sans-Serif" font-size="12.00">Dataset</text>
<text xml:space="preserve" text-anchor="middle" x="762.75" y="-21.1" font-family="Helvetica,sans-Serif" font-size="12.00">Documents</text>
<text xml:space="preserve" text-anchor="middle" x="762.75" y="-6.85" font-family="Helvetica,sans-Serif" font-size="12.00">Results</text>
</g>
<!-- object&#45;&gt;artifact -->
<g id="edge7" class="edge">
<title>object&#45;&gt;artifact</title>
<path fill="none" stroke="black" d="M432.25,-151.01C432.25,-125.5 432.25,-90 432.25,-90 432.25,-90 688.68,-90 688.68,-90"/>
<polygon fill="black" stroke="black" points="688.68,-93.5 698.68,-90 688.68,-86.5 688.68,-93.5"/>
</g>
</g>
</svg>
